<svg width="25" height="25" viewBox="0 0 25 25" fill="none" xmlns="http://www.w3.org/2000/svg">
<g clip-path="url(#clip0)">
<path d="M7.37287 24.5312C6.88016 24.202 6.44266 23.7989 6.07703 23.3333C5.67808 22.851 5.30828 22.3437 4.9687 21.8187C4.17078 20.652 3.54683 19.376 3.11453 18.0312C2.5937 16.4666 2.34058 14.9687 2.34058 13.5031C2.34058 11.8677 2.69474 10.4406 3.38433 9.24265C3.89474 8.30515 4.65516 7.52078 5.57183 6.96973C6.45724 6.41765 7.48849 6.11557 8.53016 6.09473C8.89474 6.09473 9.29058 6.14682 9.70724 6.25098C10.0093 6.33432 10.3739 6.46973 10.8218 6.6364C11.3947 6.85515 11.7072 6.99057 11.8114 7.02182C12.1447 7.14682 12.426 7.1989 12.6447 7.1989C12.8114 7.1989 13.051 7.14682 13.3166 7.06348C13.4677 7.0114 13.7541 6.91765 14.1604 6.74057C14.5625 6.59473 14.8812 6.46973 15.1343 6.37598C15.5197 6.2614 15.8927 6.15723 16.2281 6.10515C16.6343 6.04265 17.0374 6.02182 17.4239 6.05307C18.1635 6.10515 18.8406 6.2614 19.4447 6.49057C20.5072 6.91765 21.3645 7.58432 22.0041 8.53224C21.7333 8.6989 21.4833 8.89265 21.2489 9.10515C20.7416 9.55307 20.3114 10.0843 19.9677 10.6729C19.5197 11.4749 19.2906 12.3812 19.2968 13.2979C19.3125 14.426 19.5989 15.4177 20.1718 16.277C20.575 16.902 21.1135 17.4374 21.7697 17.877C22.0927 18.0958 22.376 18.2468 22.6447 18.3458C22.5197 18.7364 22.3822 19.1166 22.2229 19.4916C21.8614 20.3322 21.4312 21.1374 20.9208 21.8979C20.4708 22.5541 20.1166 23.0437 19.8479 23.3666C19.4291 23.8666 19.025 24.2416 18.6187 24.5093C18.1708 24.8062 17.6447 24.9635 17.1062 24.9635C16.7416 24.9791 16.377 24.9322 16.0291 24.8312C15.727 24.7322 15.4291 24.6208 15.1375 24.4947C14.8322 24.3551 14.5166 24.2364 14.1947 24.1406C13.7989 24.0364 13.3927 23.9864 12.9822 23.9874C12.5656 23.9874 12.1593 24.0395 11.7739 24.1385C11.451 24.2302 11.1385 24.3426 10.8291 24.477C10.3916 24.6593 10.1052 24.7791 9.93849 24.8312C9.60099 24.9312 9.25516 24.9916 8.90724 25.0135C8.36558 25.0135 7.86141 24.8572 7.35933 24.5447L7.37287 24.5312ZM14.5125 5.30203C13.8041 5.65619 13.1312 5.80619 12.4572 5.75619C12.3531 5.08328 12.4572 4.39161 12.7385 3.63432C12.9885 2.98848 13.3218 2.40515 13.7802 1.88432C14.2593 1.34265 14.8322 0.894735 15.4781 0.571818C16.1656 0.217651 16.8218 0.0301514 17.4468 -0.00109863C17.5302 0.707235 17.4468 1.40515 17.1864 2.15515C16.9489 2.82182 16.5947 3.4364 16.1447 3.98848C15.6916 4.53015 15.1291 4.97807 14.4927 5.30098L14.5125 5.30203Z" fill="#22215B"/>
</g>
<defs>
<clipPath id="clip0">
<rect width="25" height="25" fill="white"/>
</clipPath>
</defs>
</svg>
