<svg width="14" height="25" viewBox="0 0 14 25" fill="none" xmlns="http://www.w3.org/2000/svg">
<path d="M12.9976 0.00906999H9.75767C8.94528 -0.0368546 8.1325 0.092002 7.37416 0.386945C6.61581 0.681889 5.92956 1.13606 5.36168 1.71881C4.79381 2.30156 4.35754 2.99933 4.0823 3.76504C3.80706 4.53076 3.69926 5.3466 3.76618 6.15753V8.99765H0.508825C0.373617 8.99765 0.243947 9.05136 0.14834 9.14696C0.0527345 9.24257 -0.000976562 9.37224 -0.000976562 9.50745V13.6154C-0.000976563 13.7506 0.0527345 13.8802 0.14834 13.9758C0.243947 14.0715 0.373617 14.1252 0.508825 14.1252H3.76618V24.4902C3.76618 24.6254 3.81989 24.7551 3.91549 24.8507C4.0111 24.9463 4.14077 25 4.27598 25H8.5261C8.66131 25 8.79097 24.9463 8.88658 24.8507C8.98219 24.7551 9.0359 24.6254 9.0359 24.4902V14.1198H12.8446C12.9116 14.1198 12.9779 14.1066 13.0397 14.081C13.1016 14.0554 13.1578 14.0178 13.2051 13.9705C13.2525 13.9231 13.29 13.8669 13.3156 13.8051C13.3413 13.7432 13.3544 13.6769 13.3544 13.61V9.50208C13.3544 9.36687 13.3007 9.2372 13.2051 9.1416C13.1095 9.04599 12.9798 8.99228 12.8446 8.99228H9.03456V6.58281C9.03456 5.42771 9.30958 4.83875 10.8148 4.83875H12.9976C13.1328 4.83875 13.2625 4.78504 13.3581 4.68944C13.4537 4.59383 13.5074 4.46416 13.5074 4.32895V0.524236C13.5081 0.456838 13.4954 0.389968 13.4701 0.327496C13.4448 0.265023 13.4074 0.208188 13.36 0.160279C13.3126 0.11237 13.2561 0.0743378 13.1939 0.0483831C13.1317 0.0224283 13.065 0.00906626 12.9976 0.00906999Z" fill="#22215B"/>
</svg>
