<svg width="27" height="27" viewBox="0 0 27 27" fill="none" xmlns="http://www.w3.org/2000/svg">
<path d="M24.756 11.659C21.0806 11.6572 17.4053 11.6581 13.73 11.6585C13.7305 13.1829 13.7282 14.7073 13.7309 16.2313C15.8594 16.2308 17.9879 16.2304 20.116 16.2313C19.8693 17.6921 19.0012 19.0279 17.7701 19.8503C16.9962 20.3707 16.107 20.7084 15.1903 20.869C14.2678 21.0265 13.3145 21.0466 12.3942 20.8603C11.4583 20.6736 10.5649 20.2837 9.78561 19.734C8.53947 18.8585 7.58845 17.5776 7.10016 16.136C6.60086 14.6698 6.59719 13.0382 7.10244 11.5734C7.45301 10.5409 8.0365 9.58718 8.80302 8.81104C9.74851 7.84312 10.9778 7.15118 12.3021 6.86743C13.4362 6.62536 14.632 6.67155 15.7423 7.00745C16.6859 7.29396 17.5559 7.81107 18.2685 8.49158C18.9888 7.77535 19.7054 7.05503 20.4244 6.33747C20.8015 5.95123 21.1978 5.5819 21.563 5.18514C20.4711 4.17464 19.1911 3.36236 17.7925 2.84887C15.2745 1.92219 12.4349 1.90252 9.90001 2.77986C7.04339 3.75783 4.61101 5.89408 3.26238 8.59421C2.79285 9.5246 2.45004 10.5177 2.24411 11.5391C1.72605 14.084 2.08714 16.7974 3.26099 19.1154C4.02389 20.6283 5.11764 21.9733 6.44437 23.0277C7.69604 24.0259 9.15497 24.7631 10.7018 25.1746C12.6537 25.6981 14.7313 25.6862 16.696 25.2391C18.4717 24.8304 20.1517 23.982 21.493 22.7436C22.9108 21.4407 23.9222 19.724 24.4576 17.8793C25.0416 15.8671 25.1221 13.7189 24.756 11.659Z" fill="#22215B"/>
</svg>
