<svg width="14" height="14" viewBox="0 0 14 14" fill="none" xmlns="http://www.w3.org/2000/svg">
<path fill-rule="evenodd" clip-rule="evenodd" d="M11.5 6C11.5 2.82436 8.92564 0.25 5.75 0.25C2.57436 0.25 0 2.82436 0 6C0 9.17564 2.57436 11.75 5.75 11.75C7.06725 11.75 8.28105 11.3071 9.25057 10.562L12.4017 13.7123L12.4858 13.7849C12.7794 14.0028 13.196 13.9786 13.4623 13.7123C13.7552 13.4194 13.7552 12.9445 13.4623 12.6517L10.312 9.50057C11.0571 8.53105 11.5 7.31725 11.5 6ZM1.5 6C1.5 3.65279 3.40279 1.75 5.75 1.75C8.09721 1.75 10 3.65279 10 6C10 8.34721 8.09721 10.25 5.75 10.25C3.40279 10.25 1.5 8.34721 1.5 6Z" fill="#3C3C43" fill-opacity="0.6"/>
</svg>
