<svg width="25" height="21" viewBox="0 0 25 21" fill="none" xmlns="http://www.w3.org/2000/svg">
<path d="M24.999 2.4105C24.0609 2.82081 23.0666 3.08788 22.0491 3.20277C23.1244 2.57618 23.9258 1.56938 24.2952 0.380979C23.2913 0.979218 22.1907 1.3979 21.043 1.61824C20.5722 1.1175 20.0058 0.716327 19.3772 0.438478C18.7485 0.160628 18.0706 0.0117494 17.3834 0.00066779C16.6962 -0.0104138 16.0138 0.116526 15.3765 0.373962C14.7393 0.631399 14.1602 1.0141 13.6736 1.4994C13.1894 1.96917 12.8067 2.53314 12.5489 3.15654C12.2912 3.77993 12.1639 4.44953 12.1749 5.12402C12.178 5.51883 12.2223 5.91225 12.3069 6.2979C10.2513 6.20059 8.24099 5.66006 6.41375 4.71336C4.61023 3.79344 3.01895 2.50666 1.74201 0.935564C1.29875 1.69656 1.05864 2.55876 1.04477 3.43933C1.03089 4.3199 1.24371 5.18924 1.66279 5.96382C2.06103 6.69861 2.63316 7.32469 3.32919 7.78736C2.5162 7.7588 1.72194 7.53555 1.01313 7.13638V7.19976C0.996794 8.39139 1.41077 9.54893 2.17908 10.4599C2.92286 11.376 3.96442 12.0022 5.12235 12.2293C4.68229 12.345 4.22918 12.4036 3.77418 12.4036C3.45003 12.4013 3.12651 12.3748 2.80629 12.3244C3.13549 13.3417 3.77402 14.2309 4.63281 14.8679C5.4916 15.5049 6.52781 15.8579 7.59687 15.8777C5.79133 17.3178 3.54434 18.0911 1.23496 18.067C0.822139 18.0697 0.409496 18.049 -0.000976562 18.005C2.33945 19.5269 5.07587 20.3269 7.86756 20.3052C9.61269 20.3177 11.3466 20.025 12.9909 19.4403C14.4846 18.9231 15.8717 18.1383 17.0843 17.1242C18.2143 16.1576 19.1993 15.0334 20.0091 13.7861C20.8095 12.569 21.427 11.241 21.8418 9.84461C22.2391 8.50953 22.4428 7.12435 22.4466 5.73142C22.4466 5.43564 22.4413 5.21557 22.4308 5.0712C23.4344 4.3396 24.3034 3.43934 24.999 2.4105Z" fill="#22215B"/>
</svg>
